# xmcd
#
# Track frame offsets: 
#        150
#        22940
#        40632
#        59850
#        80422
#        99807
#        118576
#        137268
#
# Disc length: 2119 seconds
#
# Revision: 1
# Processed by: cddbd v1.5.2PL0 Copyright (c) Steve Scherf et al.
# Submitted via: ExactAudioCopyFreeDBPlugin 1.0
#
DISCID=58084508
DTITLE=Perry and Sanlin - We're The Winners
DYEAR=1981
DGENRE=Funk
TTITLE0=Wait 'Till The Next Time
TTITLE1=Special To Me
TTITLE2=Shake Down
TTITLE3=Just Like Magic
TTITLE4=We're The Winners
TTITLE5=Stay
TTITLE6=Show Stopper
TTITLE7=Love Is Like A Statue
EXTD=
EXTT0=
EXTT1=
EXTT2=
EXTT3=
EXTT4=
EXTT5=
EXTT6=
EXTT7=
PLAYORDER=
